<svg role="img" viewBox="0 0 22 22" xmlns="http://www.w3.org/2000/svg" id="Linux--Streamline-Simple-Icons" height="22" width="22"><desc>Linux Streamline Icon: https://streamlinehq.com</desc><title>Linux</title><path d="M11.462 0c-0.14208333333333334 0 -0.28875 0.007333333333333333 -0.43999999999999995 0.01925 -3.8738333333333332 0.30525 -2.84625 4.406416666666667 -2.9058333333333333 5.773166666666667 -0.06966666666666667 1.0010000000000001 -0.27499999999999997 1.79025 -0.9625 2.768333333333333 -0.81125 0.9634166666666666 -1.9497499999999997 2.520833333333333 -2.489666666666667 4.1442499999999995 -0.25483333333333336 0.7626666666666666 -0.3758333333333333 1.5436666666666665 -0.2630833333333333 2.2815833333333333a0.38866666666666666 0.38866666666666666 0 0 0 -0.10083333333333333 0.12375c-0.23833333333333334 0.24566666666666667 -0.4125 0.5499999999999999 -0.60775 0.7690833333333332 -0.18241666666666667 0.18241666666666667 -0.44458333333333333 0.24475 -0.7305833333333334 0.3666666666666667 -0.28691666666666665 0.12466666666666668 -0.6031666666666666 0.24658333333333335 -0.7919999999999999 0.6233333333333334 -0.08249999999999999 0.17325 -0.12466666666666668 0.3611666666666667 -0.121 0.5518333333333333 0 0.18241666666666667 0.024749999999999998 0.3666666666666667 0.050416666666666665 0.49133333333333334 0.05316666666666667 0.36575 0.10633333333333334 0.6673333333333333 0.03666666666666667 0.8891666666666667 -0.22824999999999998 0.6233333333333334 -0.25666666666666665 1.0495833333333333 -0.09716666666666667 1.3603333333333332 0.15949999999999998 0.3061666666666667 0.49041666666666667 0.4308333333333333 0.8616666666666666 0.5509166666666666 0.7425 0.18333333333333335 1.7508333333333332 0.12375 2.5428333333333333 0.5499999999999999 0.8488333333333333 0.4271666666666667 1.7105000000000001 0.6141666666666666 2.398 0.4308333333333333 0.4821666666666667 -0.10633333333333334 0.8891666666666667 -0.42533333333333334 1.1073333333333333 -0.8671666666666666 0.5380833333333332 -0.00275 1.1275 -0.24658333333333335 2.0716666666666663 -0.3061666666666667 0.6407499999999999 -0.05316666666666667 1.4428333333333334 0.24475 2.36225 0.18333333333333335 0.02291666666666667 0.12283333333333334 0.057749999999999996 0.1815 0.1045 0.30525l0.00275 0.00275c0.35841666666666666 0.7131666666666666 1.0202499999999999 1.0376666666666665 1.7269999999999999 0.9817499999999999 0.70675 -0.05499999999999999 1.4593333333333334 -0.49133333333333334 2.0689166666666665 -1.1971666666666667 0.5784166666666667 -0.7012499999999999 1.54275 -0.9936666666666667 2.1798333333333333 -1.3777499999999998 0.31899999999999995 -0.18241666666666667 0.5765833333333333 -0.4299166666666666 0.5949166666666666 -0.7819166666666666 0.021083333333333332 -0.3666666666666667 -0.18333333333333335 -0.7434166666666667 -0.6545 -1.2613333333333332v-0.08891666666666667l-0.00275 -0.00275c-0.15583333333333335 -0.18333333333333335 -0.22916666666666666 -0.49041666666666667 -0.30983333333333335 -0.8488333333333333 -0.07791666666666668 -0.3675833333333333 -0.16683333333333333 -0.7205 -0.45099999999999996 -0.9588333333333333h-0.00275c-0.05408333333333333 -0.049499999999999995 -0.11274999999999999 -0.06141666666666667 -0.17233333333333334 -0.12375a0.32725 0.32725 0 0 0 -0.17416666666666666 -0.058666666666666666c0.3950833333333333 -1.1715 0.242 -2.3375 -0.15858333333333333 -3.3861666666666665 -0.4885833333333333 -1.2925 -1.3429166666666668 -2.4181666666666666 -1.9937499999999997 -3.1927499999999998 -0.7296666666666667 -0.9212499999999999 -1.4446666666666668 -1.7939166666666666 -1.43 -3.087333333333333 0.02383333333333333 -1.9726666666666668 0.21633333333333332 -5.6219166666666665 -3.2486666666666664 -5.627416666666667zm0.48491666666666666 3.12125h0.011916666666666666c0.19524999999999998 0 0.363 0.05683333333333333 0.5353333333333333 0.1815 0.17416666666666666 0.12375 0.3025 0.30433333333333334 0.40149999999999997 0.4885833333333333 0.09624999999999999 0.23741666666666666 0.14483333333333334 0.42075 0.15216666666666667 0.6636666666666666 0 -0.018333333333333333 0.0055 -0.03666666666666667 0.0055 -0.05499999999999999v0.09624999999999999a0.07883333333333332 0.07883333333333332 0 0 1 -0.0036666666666666666 -0.01925l-0.0036666666666666666 -0.022a1.6564166666666666 1.6564166666666666 0 0 1 -0.13749999999999998 0.6471666666666666 0.8735833333333333 0.8735833333333333 0 0 1 -0.19524999999999998 0.3070833333333333 0.6508333333333333 0.6508333333333333 0 0 0 -0.08066666666666666 -0.0385c-0.09533333333333333 -0.041249999999999995 -0.1815 -0.058666666666666666 -0.2603333333333333 -0.12191666666666667a1.2026666666666668 1.2026666666666668 0 0 0 -0.20166666666666666 -0.0605c0.04583333333333334 -0.05499999999999999 0.13383333333333333 -0.12191666666666667 0.16774999999999998 -0.1815 0.04858333333333333 -0.11733333333333333 0.07516666666666667 -0.242 0.08066666666666666 -0.3685v-0.018333333333333333a1.1091666666666666 1.1091666666666666 0 0 0 -0.05591666666666666 -0.3666666666666667c-0.041249999999999995 -0.12283333333333334 -0.09258333333333334 -0.18333333333333335 -0.16774999999999998 -0.30525 -0.077 -0.0605 -0.15308333333333335 -0.121 -0.24475 -0.121h-0.014666666666666666c-0.08524999999999999 0 -0.16133333333333333 0.027499999999999997 -0.24016666666666667 0.121a0.7333333333333334 0.7333333333333334 0 0 0 -0.18791666666666665 0.3061666666666667 1.0816666666666666 1.0816666666666666 0 0 0 -0.08249999999999999 0.3666666666666667v0.017416666666666667c0.0018333333333333333 0.08158333333333333 0.007333333333333333 0.16408333333333333 0.018333333333333333 0.24475 -0.17691666666666667 -0.06141666666666667 -0.40149999999999997 -0.12375 -0.5564166666666667 -0.18516666666666667a1.49875 1.49875 0 0 1 -0.016499999999999997 -0.18333333333333335v-0.018333333333333333a1.6243333333333332 1.6243333333333332 0 0 1 0.13749999999999998 -0.704c0.07516666666666667 -0.20166666666666666 0.21266666666666667 -0.3721666666666667 0.39416666666666667 -0.4885833333333333a0.9029166666666666 0.9029166666666666 0 0 1 0.5445 -0.18333333333333335zm-2.7151666666666667 0.05408333333333333h0.032999999999999995c0.13016666666666665 0 0.2475 0.044 0.36575 0.12375 0.13383333333333333 0.11825 0.242 0.26399999999999996 0.3153333333333333 0.42625 0.08249999999999999 0.18241666666666667 0.12833333333333333 0.3666666666666667 0.14024999999999999 0.6114166666666667v0.0036666666666666666c0.006416666666666667 0.12283333333333334 0.0055 0.18333333333333335 -0.0018333333333333333 0.24383333333333335v0.07333333333333333c-0.027499999999999997 0.006416666666666667 -0.051333333333333335 0.016499999999999997 -0.07608333333333334 0.022 -0.13933333333333334 0.050416666666666665 -0.25116666666666665 0.12375 -0.36025 0.18333333333333335 0.011 -0.08249999999999999 0.011916666666666666 -0.16499999999999998 0.00275 -0.24475v-0.013749999999999998c-0.011 -0.12191666666666667 -0.03666666666666667 -0.18333333333333335 -0.07516666666666667 -0.30525a0.5619166666666666 0.5619166666666666 0 0 0 -0.15216666666666667 -0.24475 0.22733333333333333 0.22733333333333333 0 0 0 -0.16774999999999998 -0.058666666666666666h-0.01925c-0.06508333333333333 0.0055 -0.11916666666666667 0.03666666666666667 -0.17049999999999998 0.121a0.506 0.506 0 0 0 -0.10999999999999999 0.2475 0.8653333333333333 0.8653333333333333 0 0 0 -0.021083333333333332 0.3025v0.013749999999999998c0.011 0.12375 0.033916666666666664 0.18333333333333335 0.07333333333333333 0.3061666666666667 0.042166666666666665 0.12283333333333334 0.08983333333333333 0.18333333333333335 0.15216666666666667 0.24566666666666667 0.009166666666666667 0.008249999999999999 0.018333333333333333 0.016499999999999997 0.03116666666666667 0.022 -0.06416666666666666 0.05225 -0.10725 0.06416666666666666 -0.16133333333333333 0.12466666666666668a0.2786666666666667 0.2786666666666667 0 0 1 -0.12008333333333333 0.06233333333333334 2.401666666666667 2.401666666666667 0 0 1 -0.2520833333333333 -0.3685 1.6243333333333332 1.6243333333333332 0 0 1 -0.14208333333333334 -0.6114166666666667 1.6124166666666666 1.6124166666666666 0 0 1 0.07333333333333333 -0.6123333333333334 1.3108333333333333 1.3108333333333333 0 0 1 0.25941666666666663 -0.49041666666666667c0.11733333333333333 -0.12191666666666667 0.23833333333333334 -0.18333333333333335 0.38316666666666666 -0.18333333333333335zm1.2558333333333334 1.5638333333333332c0.30433333333333334 0 0.6719166666666666 0.059583333333333335 1.1146666666666667 0.36575 0.2685833333333333 0.18333333333333335 0.47941666666666666 0.24658333333333335 0.9643333333333334 0.429h0.00275c0.23374999999999999 0.12466666666666668 0.37125 0.24383333333333335 0.43816666666666665 0.36575v-0.12008333333333333a0.5234166666666666 0.5234166666666666 0 0 1 0.014666666666666666 0.4308333333333333c-0.11274999999999999 0.2841666666666667 -0.473 0.5894166666666667 -0.9744166666666666 0.7718333333333333v0.0018333333333333333c-0.24566666666666667 0.12375 -0.45925 0.30525 -0.7104166666666667 0.42625 -0.253 0.12375 -0.5389999999999999 0.26766666666666666 -0.9276666666666666 0.24475a1.0440833333333333 1.0440833333333333 0 0 1 -0.4106666666666667 -0.06141666666666667 3.2688333333333333 3.2688333333333333 0 0 1 -0.2951666666666667 -0.1815c-0.17875 -0.12375 -0.33275 -0.30433333333333334 -0.5609999999999999 -0.42625v-0.004583333333333333h-0.004583333333333333c-0.3666666666666667 -0.22549999999999998 -0.5646666666666667 -0.4693333333333333 -0.6288333333333334 -0.6508333333333333 -0.06416666666666666 -0.24566666666666667 -0.004583333333333333 -0.4308333333333333 0.17691666666666667 -0.5499999999999999 0.20533333333333334 -0.12375 0.34833333333333333 -0.24841666666666667 0.44275 -0.308 0.09533333333333333 -0.06783333333333333 0.13108333333333333 -0.09349999999999999 0.16133333333333333 -0.12008333333333333h0.0018333333333333333v-0.00275c0.15491666666666667 -0.18516666666666667 0.39966666666666667 -0.4308333333333333 0.7690833333333332 -0.5509166666666666 0.12741666666666668 -0.032999999999999995 0.26949999999999996 -0.059583333333333335 0.4271666666666667 -0.059583333333333335zm2.5666666666666664 1.9634999999999998c0.32816666666666666 1.2989166666666667 1.0963333333333332 3.185416666666667 1.5904166666666666 4.10025 0.26216666666666666 0.4895 0.78375 1.52075 1.0101666666666667 2.772 0.143 -0.004583333333333333 0.3025 0.016499999999999997 0.47025 0.058666666666666666 0.5921666666666666 -1.53175 -0.5005000000000001 -3.1780833333333334 -0.99825 -3.6355 -0.20166666666666666 -0.18333333333333335 -0.21266666666666667 -0.3070833333333333 -0.11274999999999999 -0.3070833333333333 0.5408333333333333 0.4895 1.25125 1.441 1.5088333333333332 2.52725 0.11916666666666667 0.49041666666666667 0.14666666666666667 1.012 0.01925 1.5308333333333333 0.06141666666666667 0.025666666666666667 0.12375 0.05499999999999999 0.18791666666666665 0.06141666666666667 0.946 0.4895 1.29525 0.8598333333333332 1.1275 1.4089166666666666v-0.03941666666666666c-0.05499999999999999 -0.00275 -0.10999999999999999 0 -0.16499999999999998 0h-0.014666666666666666c0.13841666666666666 -0.4280833333333333 -0.16683333333333333 -0.75625 -0.97625 -1.1219999999999999 -0.83875 -0.3666666666666667 -1.5088333333333332 -0.308 -1.6225 0.42625 -0.007333333333333333 0.03941666666666666 -0.011916666666666666 0.0605 -0.016499999999999997 0.12375 -0.06233333333333334 0.021083333333333332 -0.12741666666666668 0.04858333333333333 -0.19158333333333333 0.058666666666666666 -0.39416666666666667 0.24566666666666667 -0.6068333333333333 0.61325 -0.7269166666666667 1.0880833333333333 -0.11916666666666667 0.4885833333333333 -0.15583333333333335 1.0596666666666665 -0.18791666666666665 1.71325v0.00275c-0.018333333333333333 0.3061666666666667 -0.15583333333333335 0.7681666666666666 -0.29241666666666666 1.2375 -1.375 0.9826666666666667 -3.2816666666666667 1.4098333333333333 -4.902333333333333 0.3061666666666667a2.424583333333333 2.424583333333333 0 0 0 -0.3685 -0.4885833333333333 1.3291666666666666 1.3291666666666666 0 0 0 -0.2520833333333333 -0.30525c0.16683333333333333 0 0.30983333333333335 -0.027499999999999997 0.42625 -0.06141666666666667a0.56375 0.56375 0 0 0 0.28783333333333333 -0.3061666666666667c0.09899999999999999 -0.24475 0 -0.6389166666666666 -0.31625 -1.0660833333333333 -0.31625 -0.4280833333333333 -0.8534166666666667 -0.9120833333333332 -1.639 -1.3942499999999998 -0.5775 -0.3666666666666667 -0.9038333333333333 -0.7975 -1.0541666666666665 -1.2796666666666665 -0.15125 -0.4895 -0.13108333333333333 -0.9945833333333333 -0.013749999999999998 -1.5079166666666666 0.22458333333333333 -0.9808333333333333 0.80025 -1.9341666666666664 1.1678333333333333 -2.5327499999999996 0.09808333333333333 -0.059583333333333335 0.033916666666666664 0.12375 -0.37399999999999994 0.8928333333333333 -0.363 0.6884166666666667 -1.045 2.2889166666666663 -0.11183333333333333 3.5328333333333335a7.446083333333332 7.446083333333332 0 0 1 0.5930833333333333 -2.636333333333333c0.5169999999999999 -1.1715 1.59775 -3.2119999999999997 1.683 -4.829 0.044 0.032999999999999995 0.19891666666666666 0.12375 0.26491666666666663 0.18516666666666667 0.19983333333333334 0.12191666666666667 0.34833333333333333 0.30525 0.5408333333333333 0.42625 0.19249999999999998 0.18425 0.43724999999999997 0.3070833333333333 0.8029999999999999 0.3070833333333333 0.03575 0.00275 0.06874999999999999 0.0055 0.10083333333333333 0.0055 0.37766666666666665 0 0.6691666666666666 -0.12283333333333334 0.9139166666666666 -0.24566666666666667 0.2658333333333333 -0.12283333333333334 0.4766666666666667 -0.3061666666666667 0.6783333333333333 -0.3666666666666667h0.004583333333333333c0.4280833333333333 -0.12375 0.7654166666666666 -0.3685 0.957 -0.6416666666666666zm2.0029166666666667 8.2115c0.033916666666666664 0.5499999999999999 0.3144166666666667 1.14125 0.8085 1.2622499999999999 0.5389999999999999 0.12283333333333334 1.3145 -0.30525 1.6417499999999998 -0.7012499999999999l0.19341666666666665 -0.009166666666666667c0.28875 -0.006416666666666667 0.5289166666666666 0.009166666666666667 0.7764166666666666 0.24566666666666667l0.00275 0.00275c0.19066666666666665 0.18241666666666667 0.2795833333333333 0.48583333333333334 0.35841666666666666 0.8029999999999999 0.07791666666666668 0.3666666666666667 0.14116666666666666 0.715 0.3749166666666666 0.9771666666666666 0.44549999999999995 0.4830833333333333 0.5912499999999999 0.8305 0.583 1.045l0.00275 -0.006416666666666667v0.016499999999999997l-0.00275 -0.011c-0.013749999999999998 0.24016666666666667 -0.16958333333333334 0.363 -0.45649999999999996 0.5454166666666667 -0.5775 0.3675833333333333 -1.6005 0.6526666666666666 -2.2522499999999996 1.4391666666666667 -0.5665 0.6755833333333333 -1.2558333333333334 1.045 -1.8663333333333332 1.09175 -0.6086666666666667 0.04858333333333333 -1.1339166666666667 -0.18333333333333335 -1.4428333333333334 -0.8231666666666666l-0.004583333333333333 -0.00275c-0.19249999999999998 -0.3666666666666667 -0.10999999999999999 -0.9395833333333332 0.051333333333333335 -1.5491666666666666 0.16133333333333333 -0.6123333333333334 0.3923333333333333 -1.232 0.42441666666666666 -1.7389166666666667 0.033916666666666664 -0.6545 0.06966666666666667 -1.22375 0.17875 -1.6628333333333334 0.10999999999999999 -0.42625 0.2823333333333333 -0.7305833333333334 0.5875833333333333 -0.9019999999999999l0.041249999999999995 -0.020166666666666666zm-9.912833333333333 0.04491666666666667h0.009166666666666667c0.04858333333333333 0 0.09624999999999999 0.004583333333333333 0.14391666666666666 0.012833333333333334 0.3446666666666667 0.050416666666666665 0.6471666666666666 0.30525 0.9377499999999999 0.6893333333333334l0.8341666666666666 1.5253333333333332 0.00275 0.00275c0.22274999999999998 0.4885833333333333 0.6911666666666666 0.9753333333333334 1.0899166666666666 1.5005833333333334 0.3978333333333333 0.5481666666666666 0.7058333333333333 1.03675 0.66825 1.4391666666666667v0.0055c-0.05225 0.6819999999999999 -0.43999999999999995 1.0523333333333331 -1.03125 1.1861666666666666 -0.5912499999999999 0.12375 -1.3933333333333333 0.0018333333333333333 -2.1954166666666666 -0.42533333333333334 -0.8873333333333333 -0.49133333333333334 -1.9414999999999998 -0.4299166666666666 -2.618916666666667 -0.5518333333333333 -0.33825 -0.0605 -0.5591666666666666 -0.18333333333333335 -0.66275 -0.3666666666666667 -0.10083333333333333 -0.18333333333333335 -0.10358333333333333 -0.5518333333333333 0.11274999999999999 -1.1275v-0.0036666666666666666l0.0018333333333333333 -0.00275c0.10725 -0.3061666666666667 0.027499999999999997 -0.6893333333333334 -0.024749999999999998 -1.0248333333333335 -0.050416666666666665 -0.3675833333333333 -0.07608333333333334 -0.6508333333333333 0.03941666666666666 -0.8616666666666666 0.14666666666666667 -0.3061666666666667 0.363 -0.3666666666666667 0.6325 -0.4885833333333333 0.26949999999999996 -0.12375 0.5866666666666667 -0.18516666666666667 0.83875 -0.4308333333333333h0.0018333333333333333v-0.0018333333333333333c0.23466666666666666 -0.24566666666666667 0.40791666666666665 -0.5509166666666666 0.6123333333333334 -0.7681666666666666 0.17416666666666666 -0.18425 0.34833333333333333 -0.308 0.60775 -0.308zm6.562416666666667 -8.317833333333333c-0.39875 0.18425 -0.86625 0.49041666666666667 -1.3639999999999999 0.49041666666666667 -0.49683333333333335 0 -0.8891666666666667 -0.24475 -1.1733333333333333 -0.4271666666666667 -0.14116666666666666 -0.12283333333333334 -0.25666666666666665 -0.24566666666666667 -0.34191666666666665 -0.3070833333333333 -0.15033333333333335 -0.12283333333333334 -0.13199999999999998 -0.30525 -0.06783333333333333 -0.30525 0.09991666666666667 0.014666666666666666 0.11825 0.12283333333333334 0.18241666666666667 0.18333333333333335 0.088 0.0605 0.19708333333333333 0.18333333333333335 0.32999999999999996 0.30525 0.26766666666666666 0.18333333333333335 0.6233333333333334 0.4280833333333333 1.06975 0.4280833333333333 0.44458333333333333 0 0.9652499999999999 -0.24475 1.2814999999999999 -0.4271666666666667 0.17875 -0.12375 0.40791666666666665 -0.3061666666666667 0.594 -0.4280833333333333 0.143 -0.12466666666666668 0.13658333333333333 -0.24475 0.25575000000000003 -0.24475 0.11733333333333333 0.014666666666666666 0.03116666666666667 0.12283333333333334 -0.13474999999999998 0.30433333333333334a7.422249999999999 7.422249999999999 0 0 1 -0.6325 0.429zm-0.9918333333333333 -1.4510833333333333V5.17c-0.0055 -0.018333333333333333 0.011916666666666666 -0.0385 0.026583333333333334 -0.04583333333333334 0.06783333333333333 -0.03941666666666666 0.16499999999999998 -0.024749999999999998 0.23833333333333334 0.0036666666666666666 0.057749999999999996 0 0.14666666666666667 0.06141666666666667 0.13749999999999998 0.12375 -0.0055 0.04491666666666667 -0.07791666666666668 0.0605 -0.12375 0.0605 -0.050416666666666665 0 -0.08433333333333333 -0.03941666666666666 -0.12924999999999998 -0.06233333333333334 -0.04766666666666666 -0.016499999999999997 -0.13383333333333333 -0.007333333333333333 -0.14941666666666667 -0.059583333333333335zm-0.5050833333333333 0c-0.018333333333333333 0.05316666666666667 -0.10358333333333333 0.04491666666666667 -0.15216666666666667 0.0605 -0.043083333333333335 0.02291666666666667 -0.07883333333333332 0.06233333333333334 -0.12833333333333333 0.06233333333333334 -0.04583333333333334 0 -0.11916666666666667 -0.018333333333333333 -0.12466666666666668 -0.06233333333333334 -0.009166666666666667 -0.0605 0.08066666666666666 -0.12191666666666667 0.13749999999999998 -0.12191666666666667 0.07333333333333333 -0.028416666666666666 0.16866666666666666 -0.043083333333333335 0.23741666666666666 -0.004583333333333333 0.017416666666666667 0.008249999999999999 0.032999999999999995 0.027499999999999997 0.027499999999999997 0.04583333333333334v0.018333333333333333h0.00275z" fill="#000000" stroke-width="0.9167"/></svg>