<?xml version="1.0" encoding="utf-8"?>
<svg viewBox="0 0 128 128" xmlns="http://www.w3.org/2000/svg">
  <defs>
    <linearGradient id="Gradient" x1="0" x2="0" y1="0" y2="1">
      <stop offset="0" style="stop-color:#241F31;stop-opacity:1"/>
      <stop offset="1" style="stop-color:#000000;stop-opacity:1"/>
    </linearGradient>
    <filter id="alpha-to-white">
      <feColorMatrix in="SourceGraphic" type="matrix" values="0 0 0 0 1 0 0 0 0 1 0 0 0 0 1 0 0 0 1 0"/>
    </filter>
  </defs>
  <rect width="128" height="128" fill="url(#Gradient)" style="" transform="matrix(1, 0, 0, 1, 0, 7.105427357601002e-15)"/>
  <g transform="matrix(8, 0, 0, 8, 0.23558299243450165, -1.6490800380706716)" filter="url(#alpha-to-white)">
    <svg xmlns="http://www.w3.org/2000/svg" viewBox="0 0 500 500" height="16px" width="16px">
      <defs/>
      <path d="M 17.27 63.06 L 17.27 62.36 C 15.09 62.08 14.81 61.77 14.81 59.78 L 14.81 47.4 C 14.81 45.39 15.23 44.97 17.27 44.83 L 17.27 44.13 L 10.22 44.13 L 4.62 57.34 L -0.98 44.13 L -8.07 44.13 L -8.07 44.83 C -6.02 45 -5.57 45.36 -5.57 46.82 L -5.57 60.12 C -5.57 61.8 -5.94 62.13 -8.12 62.36 L -8.12 63.06 L -1.57 63.06 L -1.57 62.36 C -3.87 62.19 -4.4 61.66 -4.4 59.58 L -4.4 46.42 L 2.66 63.06 L 3.41 63.06 L 10.47 46 L 10.47 60.26 C 10.47 61.82 10.08 62.16 7.98 62.36 L 7.98 63.06 Z M 23.46 63.06 L 23.46 62.38 C 22.48 62.24 22.15 61.85 22.15 60.79 L 22.15 50.15 L 16.77 50.15 L 16.77 50.82 C 18 51.07 18.26 51.32 18.26 52.47 L 18.26 60.7 C 18.26 61.85 18.06 62.08 16.77 62.38 L 16.77 63.06 Z M 22.32 45.98 C 22.32 44.74 21.36 43.82 20.16 43.82 C 18.96 43.82 18 44.74 18 45.98 C 18 47.21 18.96 48.13 20.16 48.13 C 21.36 48.13 22.32 47.21 22.32 45.98 Z M 39.32 63.06 L 39.32 62.38 C 38.23 62.3 37.95 61.96 37.95 60.79 L 37.95 53.76 C 37.95 51.35 36.46 49.81 34.17 49.81 C 32.49 49.81 31.2 50.6 30.16 52.25 L 30.16 50.15 L 24.81 50.15 L 24.81 50.82 C 26.05 51.02 26.3 51.3 26.3 52.47 L 26.3 60.7 C 26.3 61.88 26.07 62.13 24.81 62.38 L 24.81 63.06 L 31.56 63.06 L 31.56 62.38 C 30.53 62.24 30.19 61.82 30.19 60.79 L 30.19 53.31 C 30.19 53.2 30.39 52.92 30.67 52.67 C 31.28 52.02 31.95 51.69 32.6 51.69 C 33.58 51.69 34.05 52.44 34.05 54.01 L 34.05 60.79 C 34.05 61.82 33.69 62.27 32.74 62.38 L 32.74 63.06 Z M 55.07 62.5 L 55.07 61.85 C 53.84 61.8 53.5 61.43 53.5 60.23 L 53.5 50.15 L 47.87 50.15 L 47.87 50.82 C 49.27 50.93 49.61 51.27 49.61 52.47 L 49.61 60.4 C 48.68 61.32 48.12 61.63 47.31 61.63 C 46.16 61.63 45.74 61.07 45.74 59.64 L 45.74 50.15 L 40.48 50.15 L 40.48 50.82 C 41.63 51.04 41.85 51.3 41.85 52.47 L 41.85 59.53 C 41.85 61.99 43.25 63.45 45.58 63.45 C 47.03 63.45 48.01 63 49.64 61.6 L 49.64 63.42 C 50.84 63 51.51 62.89 53.33 62.69 Z M 64.82 59.19 C 64.82 57.2 63.75 55.97 60.95 54.82 C 59.05 54.01 58.26 53.31 58.26 52.36 C 58.26 51.44 59.05 50.74 60.11 50.74 C 60.87 50.74 61.6 51.04 62.21 51.63 C 62.8 52.19 63.11 52.72 63.53 53.93 L 64.23 53.93 L 64.23 49.87 L 63.61 49.87 C 63.44 50.29 63.28 50.43 62.91 50.43 C 62.74 50.43 62.49 50.37 62.04 50.23 C 61.15 49.92 60.5 49.81 59.86 49.81 C 57.31 49.81 55.46 51.55 55.46 53.9 C 55.46 55.75 56.61 57.04 59.44 58.24 C 61.37 59.08 62.13 59.78 62.13 60.68 C 62.13 61.77 61.29 62.5 60.03 62.5 C 58.07 62.5 56.78 61.24 56.19 58.8 L 55.41 58.8 L 55.41 63.42 L 56.11 63.42 C 56.42 62.83 56.58 62.64 56.84 62.64 C 56.98 62.64 57.2 62.69 57.48 62.8 C 58.29 63.14 59.72 63.45 60.5 63.45 C 63.05 63.45 64.82 61.71 64.82 59.19 Z" transform="matrix(5.991389, 0, 0, 7.737945, 71.745804, -275.30481)" style="fill: rgb(51, 51, 51);"/>
      <path transform="matrix(5.991389, 0, 0, 7.737945, 71.745804, -275.30481)" style="fill: rgb(51, 51, 51);"/>
      <path d="M 9.8 83.72 L 9.8 83.02 L 0.2 83.02 L 0.2 83.72 C 2.61 83.86 3.03 84.17 3.03 85.68 L 3.03 88.62 C 3.03 90.05 2.22 90.66 0.34 90.66 C -1.42 90.66 -2.6 90.13 -3.52 88.93 C -4.76 87.36 -5.34 84.95 -5.34 81.59 C -5.34 75.74 -3.58 72.63 -0.19 72.63 C 1.1 72.63 2.3 73.14 3.53 74.2 C 4.74 75.26 5.38 76.22 6.36 78.34 L 7.06 78.34 L 7.06 71.79 L 6.3 71.79 C 5.91 72.77 5.6 73.08 5.07 73.08 C 4.82 73.08 4.4 72.97 3.78 72.69 C 2.13 72.02 0.79 71.71 -0.56 71.71 C -6.13 71.71 -10.3 76.02 -10.3 81.79 C -10.3 87.56 -6.21 91.59 -0.33 91.59 C 2.55 91.59 5.6 90.92 7.4 89.85 L 7.4 86.3 C 7.4 84.28 7.7 83.94 9.8 83.72 Z M 22.65 89.85 L 22.23 89.26 L 21.95 89.54 C 21.87 89.63 21.78 89.66 21.64 89.66 C 21.25 89.66 21.05 89.43 21.05 88.96 L 21.05 81.65 C 21.05 79.27 18.93 77.81 15.51 77.81 C 12.35 77.81 10.22 79.24 10.22 81.34 C 10.22 82.52 10.89 83.19 12.04 83.19 C 13.16 83.19 13.94 82.52 13.94 81.56 C 13.94 81.17 13.8 80.81 13.44 80.36 C 13.19 80.08 13.1 79.91 13.1 79.74 C 13.1 79.16 13.86 78.71 14.87 78.71 C 16.52 78.71 17.22 79.46 17.22 81.17 L 17.22 83.22 C 13.94 84.22 12.63 84.73 11.56 85.43 C 10.3 86.27 9.69 87.25 9.69 88.48 C 9.69 90.19 10.97 91.45 12.77 91.45 C 14.39 91.45 15.68 90.89 17.22 89.49 C 17.53 90.92 18.14 91.45 19.51 91.45 C 20.72 91.45 21.59 91 22.65 89.85 Z M 17.19 88.26 C 16.43 89.12 15.87 89.46 15.2 89.46 C 14.36 89.46 13.77 88.7 13.77 87.58 C 13.77 85.96 14.95 84.81 17.19 84.2 Z M 46.45 91.06 L 46.45 90.38 C 45.36 90.33 45.05 89.99 45.05 88.79 L 45.05 81.76 C 45.05 79.35 43.57 77.81 41.27 77.81 C 39.68 77.81 38.61 78.46 37.16 80.25 C 36.32 78.48 35.34 77.81 33.57 77.81 C 31.81 77.81 30.52 78.57 29.46 80.25 L 29.46 78.15 L 24.11 78.15 L 24.11 78.82 C 25.34 78.99 25.65 79.32 25.65 80.47 L 25.65 88.7 C 25.65 89.85 25.34 90.16 24.11 90.38 L 24.11 91.06 L 30.83 91.06 L 30.83 90.38 C 29.85 90.24 29.54 89.85 29.54 88.79 L 29.54 81.31 C 29.54 81.14 29.99 80.61 30.35 80.33 C 30.94 79.88 31.42 79.69 31.89 79.69 C 32.99 79.69 33.41 80.33 33.41 82.01 L 33.41 88.79 C 33.41 89.94 33.1 90.3 32.06 90.38 L 32.06 91.06 L 38.61 91.06 L 38.61 90.38 C 37.63 90.27 37.3 89.85 37.3 88.79 L 37.3 81.31 C 37.3 81.17 37.75 80.64 38.11 80.36 C 38.73 79.88 39.2 79.69 39.68 79.69 C 40.74 79.69 41.16 80.36 41.16 82.01 L 41.16 88.79 C 41.16 89.96 40.85 90.3 39.79 90.38 L 39.79 91.06 Z M 58.17 87.95 L 57.5 87.56 C 56.35 88.93 55.51 89.43 54.31 89.43 C 53.24 89.43 52.4 88.96 51.84 88 C 51.31 87.11 51.09 86.16 50.97 84.2 L 58.03 84.2 C 57.86 81.87 57.44 80.58 56.57 79.49 C 55.68 78.4 54.36 77.81 52.79 77.81 C 49.29 77.81 46.94 80.58 46.94 84.67 C 46.94 88.76 49.24 91.45 52.71 91.45 C 54.98 91.45 56.35 90.58 58.17 87.95 Z M 54.59 83.16 L 50.83 83.16 C 50.92 79.8 51.42 78.68 52.79 78.68 C 53.61 78.68 54.11 79.13 54.33 80 C 54.47 80.53 54.53 81.31 54.59 82.74 Z M 68.77 87.19 C 68.77 85.2 67.7 83.97 64.9 82.82 C 63 82.01 62.22 81.31 62.22 80.36 C 62.22 79.44 63 78.74 64.06 78.74 C 64.82 78.74 65.55 79.04 66.16 79.63 C 66.75 80.19 67.06 80.72 67.48 81.93 L 68.18 81.93 L 68.18 77.87 L 67.56 77.87 C 67.4 78.29 67.23 78.43 66.86 78.43 C 66.7 78.43 66.44 78.37 66 78.23 C 65.1 77.92 64.46 77.81 63.81 77.81 C 61.26 77.81 59.42 79.55 59.42 81.9 C 59.42 83.75 60.56 85.04 63.39 86.24 C 65.32 87.08 66.08 87.78 66.08 88.68 C 66.08 89.77 65.24 90.5 63.98 90.5 C 62.02 90.5 60.73 89.24 60.14 86.8 L 59.36 86.8 L 59.36 91.42 L 60.06 91.42 C 60.37 90.83 60.54 90.64 60.79 90.64 C 60.93 90.64 61.15 90.69 61.43 90.8 C 62.24 91.14 63.67 91.45 64.46 91.45 C 67 91.45 68.77 89.71 68.77 87.19 Z" transform="matrix(5.991389, 0, 0, 7.737945, 71.745804, -275.30481)" style="fill: rgb(51, 51, 51);"/>
    </svg>
  </g>
</svg>