<?xml version="1.0" encoding="utf-8"?>
<svg viewBox="0 0 33.8667 33.8667" width="128px" height="128px" xmlns="http://www.w3.org/2000/svg"><defs><linearGradient id="gradient-1"><stop offset="0" style=""/><stop offset="1" style="stop-color: rgb(36, 31, 49);"/></linearGradient></defs><g id="object-0"><g transform="matrix(0, -0.143503, 0.940741, 0, -101.066643, -1.066647)" style="transform-origin: 118px 18px;"><defs/><rect x="0" y="0" width="236" height="36" style="fill: url(#gradient-1);"/><circle cx="49.212509" cy="155.575" r="15.743801" id="circle2892" style="display: inline; opacity: 0.2; fill: none; fill-opacity: 1; stroke-width: 0.261937; stroke-linecap: butt; stroke-linejoin: miter; stroke-miterlimit: 4; stroke-dasharray: none; stroke-dashoffset: 0; stroke-opacity: 1; marker: none; paint-order: normal; stroke: rgba(255, 255, 255, 0.8);" transform="matrix(0, 1.062992, -6.968496, 0, 1202.123779, -34.312508)"/></g><path d="M 2.69 4.32 Q 2.69 4.5 2.5 4.52 L 2.22 4.55 Q 2.04 4.58 2.03 4.75 Q 2.03 4.95 2.02 5.15 Q 2.02 5.34 2.02 5.54 L 2.02 7.83 Q 2.02 8.03 2.02 8.22 Q 2.03 8.42 2.03 8.62 Q 2.04 8.82 2.22 8.83 L 2.5 8.86 Q 2.69 8.88 2.69 9.05 Q 2.69 9.23 2.49 9.23 L 0.64 9.23 Q 0.44 9.23 0.44 9.05 Q 0.44 8.88 0.64 8.86 L 0.9 8.83 Q 1.08 8.81 1.08 8.63 Q 1.09 8.43 1.09 8.23 Q 1.09 8.03 1.09 7.83 L 1.09 5.36 L -0.64 9.23 L -0.92 9.23 L -2.68 5.35 L -2.68 8.59 Q -2.68 8.78 -2.49 8.8 L -2.18 8.85 Q -2 8.87 -2 9.05 Q -2 9.23 -2.2 9.23 L -3.6 9.23 Q -3.8 9.23 -3.8 9.05 Q -3.8 8.87 -3.61 8.85 L -3.27 8.8 Q -3.08 8.78 -3.08 8.59 L -3.08 4.77 Q -3.08 4.58 -3.27 4.55 L -3.56 4.52 Q -3.75 4.5 -3.75 4.32 Q -3.75 4.15 -3.55 4.15 L -2.29 4.15 L -0.52 8 L 1.16 4.3 Q 1.24 4.15 1.4 4.15 L 2.49 4.15 Q 2.69 4.15 2.69 4.32 Z M 4.65 8.65 Q 4.65 8.82 4.83 8.86 L 4.97 8.88 Q 5.14 8.92 5.14 9.07 Q 5.14 9.23 4.94 9.23 L 3.47 9.23 Q 3.27 9.23 3.27 9.07 Q 3.27 8.93 3.45 8.89 L 3.61 8.86 Q 3.79 8.82 3.8 8.65 L 3.8 7.23 Q 3.8 7.07 3.8 6.95 Q 3.8 6.82 3.79 6.71 Q 3.78 6.64 3.78 6.58 Q 3.78 6.51 3.78 6.45 Q 3.77 6.27 3.59 6.24 L 3.4 6.22 Q 3.21 6.19 3.21 6.05 Q 3.21 5.92 3.37 5.86 L 4.41 5.48 Q 4.45 5.47 4.49 5.46 Q 4.52 5.45 4.55 5.45 Q 4.59 5.45 4.61 5.47 Q 4.67 5.52 4.67 5.67 L 4.65 6.58 Z M 4.21 4.7 Q 3.96 4.7 3.79 4.55 Q 3.63 4.39 3.63 4.15 Q 3.63 3.9 3.79 3.75 Q 3.96 3.59 4.21 3.59 Q 4.46 3.59 4.63 3.75 Q 4.79 3.9 4.79 4.15 Q 4.79 4.39 4.63 4.55 Q 4.46 4.7 4.21 4.7 Z M 9.35 8.65 Q 9.36 8.82 9.53 8.86 L 9.67 8.88 Q 9.85 8.92 9.85 9.07 Q 9.85 9.23 9.65 9.23 L 8.17 9.23 Q 7.97 9.23 7.97 9.07 Q 7.97 8.92 8.15 8.89 L 8.31 8.86 Q 8.49 8.82 8.49 8.65 L 8.49 6.91 Q 8.49 6.43 8.38 6.22 Q 8.26 6.02 7.96 6.02 Q 7.71 6.02 7.48 6.14 Q 7.25 6.26 7 6.5 L 7 8.65 Q 7.01 8.82 7.18 8.86 L 7.33 8.89 Q 7.5 8.92 7.5 9.07 Q 7.5 9.23 7.3 9.23 L 5.81 9.23 Q 5.61 9.23 5.61 9.07 Q 5.61 8.93 5.8 8.89 L 5.97 8.86 Q 6.14 8.82 6.15 8.65 L 6.15 7.2 Q 6.15 7.04 6.15 6.91 Q 6.15 6.79 6.14 6.69 Q 6.13 6.63 6.13 6.57 Q 6.13 6.51 6.13 6.45 Q 6.12 6.27 5.94 6.24 L 5.75 6.22 Q 5.57 6.19 5.57 6.05 Q 5.57 5.91 5.73 5.85 L 6.65 5.49 Q 6.73 5.46 6.8 5.46 Q 6.85 5.46 6.86 5.47 Q 6.93 5.51 6.93 5.66 L 6.97 6.13 Q 7.28 5.78 7.59 5.61 Q 7.9 5.43 8.29 5.43 Q 8.82 5.43 9.09 5.76 Q 9.35 6.08 9.35 6.82 Z M 13.89 8.64 Q 13.89 8.83 14.07 8.86 L 14.19 8.88 Q 14.37 8.92 14.37 9.07 Q 14.37 9.23 14.18 9.24 L 13.32 9.3 L 13.31 9.3 Q 13.13 9.3 13.11 9.11 L 13.06 8.65 Q 12.46 9.35 11.73 9.35 Q 11.5 9.35 11.31 9.27 Q 11.11 9.19 10.98 9.03 Q 10.84 8.87 10.77 8.61 Q 10.7 8.35 10.71 7.96 L 10.72 6.19 Q 10.72 6.02 10.54 5.98 L 10.43 5.95 Q 10.25 5.92 10.25 5.77 Q 10.25 5.63 10.44 5.61 L 11.37 5.53 Q 11.4 5.53 11.43 5.53 Q 11.45 5.52 11.47 5.52 Q 11.52 5.52 11.55 5.54 Q 11.59 5.57 11.59 5.72 L 11.55 6.67 L 11.55 7.85 Q 11.55 8.35 11.69 8.55 Q 11.83 8.75 12.09 8.75 Q 12.32 8.75 12.57 8.62 Q 12.81 8.49 13.03 8.27 L 13.06 6.19 Q 13.06 6.02 12.87 5.98 L 12.76 5.95 Q 12.59 5.92 12.59 5.78 Q 12.59 5.63 12.78 5.62 L 13.69 5.53 Q 13.72 5.53 13.75 5.53 Q 13.77 5.52 13.79 5.52 Q 13.84 5.52 13.87 5.54 Q 13.89 5.55 13.9 5.59 Q 13.91 5.63 13.91 5.72 L 13.89 6.67 Z M 16.47 6.94 L 16.73 7.03 Q 17.02 7.14 17.22 7.26 Q 17.41 7.39 17.54 7.52 Q 17.65 7.67 17.7 7.83 Q 17.75 7.99 17.75 8.18 Q 17.75 8.5 17.61 8.72 Q 17.47 8.94 17.25 9.08 Q 17.02 9.22 16.75 9.28 Q 16.47 9.35 16.2 9.35 Q 15.86 9.35 15.61 9.28 Q 15.35 9.21 15.09 9.08 Q 14.95 9.02 14.95 8.85 L 14.94 8.35 Q 14.94 8.15 15.13 8.15 L 15.26 8.15 Q 15.44 8.15 15.48 8.33 L 15.54 8.67 Q 15.57 8.83 15.71 8.87 Q 15.95 8.97 16.21 8.97 Q 16.61 8.97 16.8 8.83 Q 16.98 8.68 16.98 8.43 Q 16.98 8.19 16.82 8.06 Q 16.66 7.93 16.25 7.77 L 15.9 7.64 Q 15.45 7.46 15.21 7.2 Q 14.97 6.95 14.97 6.55 Q 14.97 6.24 15.1 6.03 Q 15.23 5.83 15.44 5.69 Q 15.65 5.55 15.9 5.49 Q 16.16 5.43 16.42 5.43 Q 16.7 5.43 16.93 5.49 Q 17.17 5.55 17.4 5.67 Q 17.55 5.74 17.54 5.91 L 17.52 6.35 Q 17.51 6.55 17.32 6.55 L 17.2 6.55 Q 17.01 6.55 16.98 6.37 L 16.93 6.07 Q 16.89 5.91 16.75 5.87 Q 16.58 5.8 16.4 5.8 Q 16.08 5.8 15.91 5.94 Q 15.73 6.07 15.73 6.33 Q 15.73 6.52 15.89 6.66 Q 15.97 6.72 16.11 6.79 Q 16.26 6.87 16.47 6.94 Z" transform="matrix(1, 0, 0, 1, 9.848339, 6.274179)" style="fill: rgb(255, 255, 255); text-transform: capitalize;"/><path transform="matrix(1, 0, 0, 1, 9.848339, 6.274179)" style="fill: rgb(255, 255, 255); text-transform: capitalize;"/><path d="M -0.02 14.82 Q 0.18 14.82 0.18 14.98 Q 0.18 15.16 -0.01 15.18 L -0.08 15.19 Q -0.26 15.22 -0.26 15.4 Q -0.27 15.69 -0.28 15.97 Q -0.28 16.26 -0.28 16.56 L -0.28 16.74 Q -0.28 16.9 -0.42 16.97 Q -0.79 17.15 -1.16 17.25 Q -1.53 17.34 -1.96 17.34 Q -2.54 17.34 -3.02 17.14 Q -3.5 16.94 -3.86 16.59 Q -4.21 16.24 -4.4 15.75 Q -4.59 15.26 -4.59 14.69 Q -4.59 14.1 -4.39 13.61 Q -4.19 13.12 -3.84 12.77 Q -3.48 12.42 -2.98 12.22 Q -2.49 12.02 -1.9 12.02 Q -1.52 12.02 -1.19 12.1 Q -0.86 12.17 -0.52 12.33 Q -0.38 12.39 -0.38 12.56 L -0.36 13.3 Q -0.36 13.5 -0.55 13.5 L -0.71 13.5 Q -0.9 13.5 -0.93 13.31 L -1.02 12.77 Q -1.04 12.61 -1.18 12.55 Q -1.5 12.43 -1.85 12.43 Q -2.32 12.43 -2.65 12.63 Q -2.98 12.83 -3.19 13.15 Q -3.39 13.47 -3.48 13.88 Q -3.58 14.28 -3.58 14.69 Q -3.58 15.11 -3.48 15.51 Q -3.38 15.91 -3.17 16.23 Q -2.96 16.55 -2.62 16.74 Q -2.29 16.94 -1.81 16.94 Q -1.58 16.94 -1.36 16.89 Q -1.2 16.84 -1.2 16.7 L -1.2 16.56 Q -1.2 16.28 -1.2 15.99 Q -1.21 15.7 -1.22 15.42 Q -1.22 15.24 -1.4 15.22 L -1.7 15.18 Q -1.9 15.16 -1.9 14.98 Q -1.9 14.82 -1.7 14.82 Z M 4.14 16.68 Q 4.16 16.66 4.25 16.74 Q 4.34 16.84 4.24 16.98 Q 4.11 17.17 3.96 17.24 Q 3.81 17.3 3.6 17.3 Q 3.27 17.3 3.08 17.16 Q 2.89 17.02 2.82 16.79 Q 2.57 17.05 2.33 17.2 Q 2.09 17.34 1.71 17.34 Q 1.27 17.34 0.97 17.1 Q 0.67 16.86 0.67 16.4 Q 0.67 16.09 0.84 15.86 Q 1.01 15.64 1.27 15.48 Q 1.53 15.32 1.83 15.22 Q 2.13 15.11 2.38 15.04 L 2.79 14.92 L 2.79 14.71 Q 2.79 14.18 2.63 13.99 Q 2.48 13.79 2.1 13.79 Q 2.06 13.79 2.03 13.79 Q 1.99 13.79 1.95 13.8 Q 1.79 13.81 1.75 13.99 L 1.68 14.32 Q 1.58 14.8 1.2 14.8 Q 1.04 14.8 0.93 14.7 Q 0.81 14.6 0.8 14.44 Q 0.87 13.99 1.28 13.71 Q 1.69 13.43 2.37 13.43 Q 3.03 13.43 3.33 13.75 Q 3.64 14.07 3.64 14.88 L 3.64 16.49 Q 3.64 16.85 3.86 16.85 Q 3.96 16.85 4.04 16.79 Q 4.09 16.75 4.11 16.72 Q 4.13 16.7 4.14 16.68 Z M 2.79 16.48 L 2.79 15.24 Q 2.6 15.29 2.38 15.36 Q 2.16 15.43 1.97 15.54 Q 1.77 15.66 1.65 15.82 Q 1.52 15.98 1.52 16.22 Q 1.52 16.49 1.68 16.64 Q 1.85 16.79 2.12 16.79 Q 2.28 16.79 2.42 16.73 Q 2.56 16.66 2.79 16.48 Z M 10.62 16.65 Q 10.62 16.82 10.8 16.86 L 10.94 16.89 Q 11.12 16.92 11.12 17.07 Q 11.12 17.22 10.92 17.22 L 9.46 17.22 Q 9.26 17.22 9.26 17.07 Q 9.26 16.93 9.44 16.89 L 9.61 16.86 Q 9.78 16.82 9.79 16.65 L 9.79 14.9 Q 9.79 14.42 9.65 14.22 Q 9.51 14.02 9.23 14.02 Q 9.01 14.02 8.77 14.15 Q 8.54 14.28 8.3 14.49 Q 8.31 14.56 8.32 14.64 Q 8.32 14.73 8.32 14.82 L 8.32 16.65 Q 8.33 16.82 8.5 16.86 L 8.65 16.89 Q 8.82 16.92 8.82 17.07 Q 8.82 17.22 8.62 17.22 L 7.16 17.22 Q 6.96 17.22 6.96 17.07 Q 6.96 16.93 7.14 16.89 L 7.3 16.86 Q 7.48 16.82 7.49 16.65 L 7.49 14.9 Q 7.49 14.42 7.35 14.22 Q 7.22 14.02 6.94 14.02 Q 6.7 14.02 6.47 14.14 Q 6.24 14.27 6.01 14.48 L 6.01 16.65 Q 6.02 16.82 6.19 16.86 L 6.33 16.88 Q 6.5 16.92 6.5 17.07 Q 6.5 17.22 6.3 17.22 L 4.83 17.22 Q 4.63 17.22 4.63 17.07 Q 4.63 16.93 4.82 16.89 L 4.98 16.86 Q 5.16 16.82 5.17 16.65 L 5.17 15.2 Q 5.17 15.04 5.17 14.91 Q 5.17 14.78 5.16 14.69 Q 5.15 14.62 5.15 14.57 Q 5.15 14.51 5.15 14.45 Q 5.14 14.26 4.96 14.24 L 4.76 14.22 Q 4.58 14.19 4.58 14.05 Q 4.58 13.91 4.74 13.85 L 5.66 13.49 Q 5.74 13.46 5.81 13.46 Q 5.86 13.46 5.87 13.47 Q 5.94 13.51 5.94 13.66 L 5.98 14.12 Q 6.26 13.78 6.58 13.61 Q 6.89 13.43 7.26 13.43 Q 7.66 13.43 7.9 13.6 Q 8.14 13.77 8.25 14.14 Q 8.55 13.77 8.87 13.6 Q 9.18 13.43 9.59 13.43 Q 10.1 13.43 10.36 13.75 Q 10.62 14.06 10.62 14.78 Z M 15.13 15.12 Q 15.1 15.3 14.91 15.3 L 12.59 15.3 Q 12.61 16.02 12.94 16.39 Q 13.28 16.76 13.81 16.76 Q 14.13 16.76 14.35 16.64 Q 14.57 16.53 14.75 16.32 Q 14.84 16.22 14.92 16.22 Q 14.96 16.22 14.99 16.25 Q 15.11 16.33 15.02 16.49 Q 14.81 16.9 14.42 17.11 Q 14.03 17.33 13.5 17.33 Q 13.05 17.33 12.71 17.18 Q 12.36 17.02 12.12 16.76 Q 11.89 16.49 11.77 16.12 Q 11.65 15.75 11.65 15.32 Q 11.65 14.9 11.78 14.53 Q 11.92 14.15 12.17 13.87 Q 12.42 13.58 12.78 13.42 Q 13.13 13.26 13.57 13.26 Q 13.93 13.26 14.22 13.38 Q 14.51 13.5 14.72 13.71 Q 14.93 13.92 15.04 14.22 Q 15.15 14.51 15.15 14.87 Q 15.15 14.94 15.15 15 Q 15.15 15.06 15.13 15.12 Z M 12.61 14.93 L 13.81 14.93 Q 14.09 14.93 14.19 14.81 Q 14.29 14.69 14.29 14.47 Q 14.29 14.11 14.09 13.87 Q 13.89 13.63 13.58 13.63 Q 13.33 13.63 13.15 13.76 Q 12.97 13.88 12.86 14.07 Q 12.74 14.26 12.68 14.49 Q 12.62 14.72 12.61 14.93 Z M 17.36 14.94 L 17.61 15.02 Q 17.91 15.14 18.11 15.26 Q 18.3 15.38 18.43 15.52 Q 18.54 15.66 18.59 15.83 Q 18.64 15.99 18.64 16.18 Q 18.64 16.5 18.5 16.72 Q 18.36 16.94 18.13 17.08 Q 17.91 17.22 17.63 17.28 Q 17.36 17.34 17.09 17.34 Q 16.75 17.34 16.49 17.28 Q 16.24 17.21 15.98 17.08 Q 15.84 17.02 15.84 16.85 L 15.83 16.34 Q 15.83 16.14 16.02 16.14 L 16.15 16.14 Q 16.33 16.14 16.37 16.33 L 16.43 16.66 Q 16.45 16.82 16.6 16.87 Q 16.84 16.97 17.09 16.97 Q 17.5 16.97 17.69 16.82 Q 17.87 16.68 17.87 16.42 Q 17.87 16.19 17.71 16.06 Q 17.55 15.93 17.14 15.77 L 16.79 15.64 Q 16.34 15.46 16.1 15.2 Q 15.86 14.94 15.86 14.54 Q 15.86 14.24 15.99 14.03 Q 16.12 13.82 16.33 13.69 Q 16.53 13.55 16.79 13.49 Q 17.05 13.43 17.31 13.43 Q 17.59 13.43 17.82 13.49 Q 18.05 13.55 18.29 13.66 Q 18.44 13.74 18.43 13.9 L 18.41 14.35 Q 18.4 14.54 18.21 14.54 L 18.09 14.54 Q 17.9 14.54 17.87 14.37 L 17.81 14.07 Q 17.78 13.9 17.64 13.86 Q 17.47 13.8 17.29 13.8 Q 16.97 13.8 16.79 13.94 Q 16.62 14.07 16.62 14.33 Q 16.62 14.52 16.77 14.66 Q 16.85 14.72 17 14.79 Q 17.15 14.86 17.36 14.94 Z" transform="matrix(1, 0, 0, 1, 9.848339, 6.274179)" style="fill: rgb(255, 255, 255); text-transform: capitalize;"/></g></svg>