<?xml version="1.0" encoding="utf-8"?>
<svg viewBox="0 0 32 32" width="32" height="32" version="1.1" id="svg5" xmlns="http://www.w3.org/2000/svg" xmlns:bx="https://boxy-svg.com">
  <defs id="defs2">
    <linearGradient gradientUnits="userSpaceOnUse" x1="0" y1="0" x2="28" y2="28" id="gradient-0" gradientTransform="scale(2.5603819,0.39056673)&quot; gradientUnits=&quot;userSpaceOnUse">
      <stop offset="0" style=""/>
      <stop offset="1" style="stop-color: rgb(36, 31, 49)"/>
    </linearGradient>
    <bx:export>
      <bx:file format="jpeg" path="V2.jpeg" width="128" height="128"/>
      <bx:file format="png" path="V2.png" width="128" height="128"/>
      <bx:file format="png" href="#rect3" path="MinusGamesV2.png" width="128" height="128"/>
      <bx:file format="png" href="#object-0" path="MinusGamesV2.png" width="128" height="128"/>
    </bx:export>
  </defs>
  <g id="object-0">
    <g id="g3">
      <rect id="rect3" x="2" y="2" width="28" height="28" rx="2.1" ry="2.1" style="stroke: url(&quot;#gradient-0&quot;); paint-order: stroke; fill: url(&quot;#gradient-0&quot;); transform-box: fill-box; transform-origin: 50% 50%;"/>
      <circle cx="16" cy="16" r="14" id="circle2892" style="display:inline;opacity:1;mix-blend-mode:normal;fill:none;fill-opacity:1;stroke:#fffff0;stroke-width:0.261937;stroke-linecap:butt;stroke-linejoin:miter;stroke-miterlimit:4;stroke-dasharray:none;stroke-dashoffset:0;stroke-opacity:0.260784;marker:none;paint-order:normal"/>
    </g>
    <path d="M 11.538 10.594 C 11.538 10.714 11.475 10.781 11.348 10.794 L 11.068 10.824 C 10.948 10.844 10.885 10.911 10.878 11.024 C 10.878 11.158 10.875 11.291 10.868 11.424 C 10.868 11.551 10.868 11.681 10.868 11.814 L 10.868 14.104 C 10.868 14.238 10.868 14.368 10.868 14.494 C 10.875 14.628 10.878 14.761 10.878 14.894 C 10.885 15.028 10.948 15.098 11.068 15.104 L 11.348 15.134 C 11.475 15.148 11.538 15.211 11.538 15.324 C 11.538 15.444 11.472 15.504 11.338 15.504 L 9.488 15.504 C 9.355 15.504 9.288 15.444 9.288 15.324 C 9.288 15.211 9.355 15.148 9.488 15.134 L 9.748 15.104 C 9.868 15.091 9.928 15.024 9.928 14.904 C 9.935 14.771 9.938 14.638 9.938 14.504 C 9.938 14.371 9.938 14.238 9.938 14.104 L 9.938 11.634 L 8.208 15.504 L 7.928 15.504 L 6.168 11.624 L 6.168 14.864 C 6.168 14.991 6.232 15.061 6.358 15.074 L 6.668 15.124 C 6.788 15.138 6.848 15.204 6.848 15.324 C 6.848 15.444 6.782 15.504 6.648 15.504 L 5.248 15.504 C 5.115 15.504 5.048 15.444 5.048 15.324 C 5.048 15.204 5.112 15.138 5.238 15.124 L 5.578 15.074 C 5.705 15.061 5.768 14.991 5.768 14.864 L 5.768 11.044 C 5.768 10.918 5.705 10.844 5.578 10.824 L 5.288 10.794 C 5.162 10.781 5.098 10.714 5.098 10.594 C 5.098 10.481 5.165 10.424 5.298 10.424 L 6.558 10.424 L 8.328 14.274 L 10.008 10.574 C 10.062 10.474 10.142 10.424 10.248 10.424 L 11.338 10.424 C 11.472 10.424 11.538 10.481 11.538 10.594 L 11.538 10.594 Z M 13.498 14.924 C 13.498 15.038 13.558 15.108 13.678 15.134 L 13.818 15.154 C 13.932 15.181 13.988 15.244 13.988 15.344 C 13.988 15.451 13.922 15.504 13.788 15.504 L 12.318 15.504 C 12.185 15.504 12.118 15.451 12.118 15.344 C 12.118 15.251 12.178 15.191 12.298 15.164 L 12.458 15.134 C 12.578 15.108 12.642 15.038 12.648 14.924 L 12.648 13.504 C 12.648 13.398 12.648 13.304 12.648 13.224 C 12.648 13.138 12.645 13.058 12.638 12.984 C 12.632 12.938 12.628 12.894 12.628 12.854 C 12.628 12.808 12.628 12.764 12.628 12.724 C 12.622 12.604 12.558 12.534 12.438 12.514 L 12.248 12.494 C 12.122 12.474 12.058 12.418 12.058 12.324 C 12.058 12.238 12.112 12.174 12.218 12.134 L 13.258 11.754 C 13.285 11.748 13.312 11.741 13.338 11.734 C 13.358 11.728 13.378 11.724 13.398 11.724 C 13.425 11.724 13.445 11.731 13.458 11.744 C 13.498 11.778 13.518 11.844 13.518 11.944 L 13.498 12.854 L 13.498 14.924 Z M 13.058 10.974 C 12.892 10.974 12.752 10.924 12.638 10.824 C 12.532 10.718 12.478 10.584 12.478 10.424 C 12.478 10.258 12.532 10.124 12.638 10.024 C 12.752 9.918 12.892 9.864 13.058 9.864 C 13.225 9.864 13.365 9.918 13.478 10.024 C 13.585 10.124 13.638 10.258 13.638 10.424 C 13.638 10.584 13.585 10.718 13.478 10.824 C 13.365 10.924 13.225 10.974 13.058 10.974 Z M 18.198 14.924 C 18.205 15.038 18.265 15.108 18.378 15.134 L 18.518 15.154 C 18.638 15.181 18.698 15.244 18.698 15.344 C 18.698 15.451 18.632 15.504 18.498 15.504 L 17.018 15.504 C 16.885 15.504 16.818 15.451 16.818 15.344 C 16.818 15.244 16.878 15.184 16.998 15.164 L 17.158 15.134 C 17.278 15.108 17.338 15.038 17.338 14.924 L 17.338 13.184 C 17.338 12.864 17.302 12.634 17.228 12.494 C 17.148 12.361 17.008 12.294 16.808 12.294 C 16.642 12.294 16.482 12.334 16.328 12.414 C 16.175 12.494 16.015 12.614 15.848 12.774 L 15.848 14.924 C 15.855 15.038 15.915 15.108 16.028 15.134 L 16.178 15.164 C 16.292 15.184 16.348 15.244 16.348 15.344 C 16.348 15.451 16.282 15.504 16.148 15.504 L 14.658 15.504 C 14.525 15.504 14.458 15.451 14.458 15.344 C 14.458 15.251 14.522 15.191 14.648 15.164 L 14.818 15.134 C 14.932 15.108 14.992 15.038 14.998 14.924 L 14.998 13.474 C 14.998 13.368 14.998 13.271 14.998 13.184 C 14.998 13.104 14.995 13.031 14.988 12.964 C 14.982 12.924 14.978 12.884 14.978 12.844 C 14.978 12.804 14.978 12.764 14.978 12.724 C 14.972 12.604 14.908 12.534 14.788 12.514 L 14.598 12.494 C 14.478 12.474 14.418 12.418 14.418 12.324 C 14.418 12.231 14.472 12.164 14.578 12.124 L 15.498 11.764 C 15.552 11.744 15.602 11.734 15.648 11.734 C 15.682 11.734 15.702 11.738 15.708 11.744 C 15.755 11.771 15.778 11.834 15.778 11.934 L 15.818 12.404 C 16.025 12.171 16.232 11.998 16.438 11.884 C 16.645 11.764 16.878 11.704 17.138 11.704 C 17.492 11.704 17.758 11.814 17.938 12.034 C 18.112 12.248 18.198 12.601 18.198 13.094 L 18.198 14.924 Z M 22.738 14.914 C 22.738 15.041 22.798 15.114 22.918 15.134 L 23.038 15.154 C 23.158 15.181 23.218 15.244 23.218 15.344 C 23.218 15.451 23.155 15.508 23.028 15.514 L 22.168 15.574 L 22.158 15.574 C 22.038 15.574 21.972 15.511 21.958 15.384 L 21.908 14.924 C 21.508 15.391 21.065 15.624 20.578 15.624 C 20.425 15.624 20.285 15.598 20.158 15.544 C 20.025 15.491 19.915 15.411 19.828 15.304 C 19.735 15.198 19.665 15.058 19.618 14.884 C 19.572 14.711 19.552 14.494 19.558 14.234 L 19.568 12.464 C 19.568 12.351 19.508 12.281 19.388 12.254 L 19.278 12.224 C 19.158 12.204 19.098 12.144 19.098 12.044 C 19.098 11.951 19.162 11.898 19.288 11.884 L 20.218 11.804 C 20.238 11.804 20.258 11.804 20.278 11.804 C 20.292 11.798 20.305 11.794 20.318 11.794 C 20.352 11.794 20.378 11.801 20.398 11.814 C 20.425 11.834 20.438 11.894 20.438 11.994 L 20.398 12.944 L 20.398 14.124 C 20.398 14.458 20.445 14.691 20.538 14.824 C 20.632 14.958 20.765 15.024 20.938 15.024 C 21.092 15.024 21.252 14.981 21.418 14.894 C 21.578 14.808 21.732 14.691 21.878 14.544 L 21.908 12.464 C 21.908 12.351 21.845 12.281 21.718 12.254 L 21.608 12.224 C 21.495 12.204 21.438 12.148 21.438 12.054 C 21.438 11.954 21.502 11.901 21.628 11.894 L 22.538 11.804 C 22.558 11.804 22.578 11.804 22.598 11.804 C 22.612 11.798 22.625 11.794 22.638 11.794 C 22.672 11.794 22.698 11.801 22.718 11.814 C 22.732 11.821 22.742 11.838 22.748 11.864 C 22.755 11.891 22.758 11.934 22.758 11.994 L 22.738 12.944 L 22.738 14.914 Z M 25.318 13.214 L 25.578 13.304 C 25.772 13.378 25.935 13.454 26.068 13.534 C 26.195 13.621 26.302 13.708 26.388 13.794 C 26.462 13.894 26.515 13.998 26.548 14.104 C 26.582 14.211 26.598 14.328 26.598 14.454 C 26.598 14.668 26.552 14.848 26.458 14.994 C 26.365 15.141 26.245 15.261 26.098 15.354 C 25.945 15.448 25.778 15.514 25.598 15.554 C 25.412 15.601 25.228 15.624 25.048 15.624 C 24.822 15.624 24.625 15.601 24.458 15.554 C 24.285 15.508 24.112 15.441 23.938 15.354 C 23.845 15.314 23.798 15.238 23.798 15.124 L 23.788 14.624 C 23.788 14.491 23.852 14.424 23.978 14.424 L 24.108 14.424 C 24.228 14.424 24.302 14.484 24.328 14.604 L 24.388 14.944 C 24.408 15.051 24.465 15.118 24.558 15.144 C 24.718 15.211 24.885 15.244 25.058 15.244 C 25.325 15.244 25.522 15.198 25.648 15.104 C 25.768 15.004 25.828 14.871 25.828 14.704 C 25.828 14.544 25.775 14.421 25.668 14.334 C 25.562 14.248 25.372 14.151 25.098 14.044 L 24.748 13.914 C 24.448 13.794 24.218 13.648 24.058 13.474 C 23.898 13.308 23.818 13.091 23.818 12.824 C 23.818 12.618 23.862 12.444 23.948 12.304 C 24.035 12.171 24.148 12.058 24.288 11.964 C 24.428 11.871 24.582 11.804 24.748 11.764 C 24.922 11.724 25.095 11.704 25.268 11.704 C 25.455 11.704 25.625 11.724 25.778 11.764 C 25.938 11.804 26.095 11.864 26.248 11.944 C 26.348 11.991 26.395 12.071 26.388 12.184 L 26.368 12.624 C 26.362 12.758 26.295 12.824 26.168 12.824 L 26.048 12.824 C 25.922 12.824 25.848 12.764 25.828 12.644 L 25.778 12.344 C 25.752 12.238 25.692 12.171 25.598 12.144 C 25.485 12.098 25.368 12.074 25.248 12.074 C 25.035 12.074 24.872 12.121 24.758 12.214 C 24.638 12.301 24.578 12.431 24.578 12.604 C 24.578 12.731 24.632 12.841 24.738 12.934 C 24.792 12.974 24.865 13.018 24.958 13.064 C 25.058 13.118 25.178 13.168 25.318 13.214 L 25.318 13.214 Z" style="text-transform:capitalize;fill:#ffffff" id="path3"/>
    <path transform="translate(9.848339,6.274179)" style="text-transform:capitalize;fill:#ffffff" id="path4" d=""/>
    <path d="M 8.828 21.094 C 8.962 21.094 9.028 21.148 9.028 21.254 C 9.028 21.374 8.965 21.441 8.838 21.454 L 8.768 21.464 C 8.648 21.484 8.588 21.554 8.588 21.674 C 8.582 21.868 8.575 22.058 8.568 22.244 C 8.568 22.438 8.568 22.634 8.568 22.834 L 8.568 23.014 C 8.568 23.121 8.522 23.198 8.428 23.244 C 8.182 23.364 7.935 23.458 7.688 23.524 C 7.442 23.584 7.175 23.614 6.888 23.614 C 6.502 23.614 6.148 23.548 5.828 23.414 C 5.508 23.281 5.228 23.098 4.988 22.864 C 4.755 22.631 4.575 22.351 4.448 22.024 C 4.322 21.698 4.258 21.344 4.258 20.964 C 4.258 20.571 4.325 20.211 4.458 19.884 C 4.592 19.558 4.775 19.278 5.008 19.044 C 5.248 18.811 5.535 18.628 5.868 18.494 C 6.195 18.361 6.555 18.294 6.948 18.294 C 7.202 18.294 7.438 18.321 7.658 18.374 C 7.878 18.421 8.102 18.498 8.328 18.604 C 8.422 18.644 8.468 18.721 8.468 18.834 L 8.488 19.574 C 8.488 19.708 8.425 19.774 8.298 19.774 L 8.138 19.774 C 8.012 19.774 7.938 19.711 7.918 19.584 L 7.828 19.044 C 7.815 18.938 7.762 18.864 7.668 18.824 C 7.455 18.744 7.232 18.704 6.998 18.704 C 6.685 18.704 6.418 18.771 6.198 18.904 C 5.978 19.038 5.798 19.211 5.658 19.424 C 5.525 19.638 5.428 19.881 5.368 20.154 C 5.302 20.421 5.268 20.691 5.268 20.964 C 5.268 21.244 5.302 21.518 5.368 21.784 C 5.435 22.051 5.538 22.291 5.678 22.504 C 5.818 22.718 6.002 22.888 6.228 23.014 C 6.448 23.148 6.718 23.214 7.038 23.214 C 7.192 23.214 7.342 23.198 7.488 23.164 C 7.595 23.131 7.648 23.068 7.648 22.974 L 7.648 22.834 C 7.648 22.648 7.648 22.458 7.648 22.264 C 7.642 22.071 7.635 21.881 7.628 21.694 C 7.628 21.574 7.568 21.508 7.448 21.494 L 7.148 21.454 C 7.015 21.441 6.948 21.374 6.948 21.254 C 6.948 21.148 7.015 21.094 7.148 21.094 L 8.828 21.094 Z M 12.988 22.954 C 13.002 22.941 13.038 22.961 13.098 23.014 C 13.158 23.081 13.155 23.161 13.088 23.254 C 13.002 23.381 12.908 23.468 12.808 23.514 C 12.708 23.554 12.588 23.574 12.448 23.574 C 12.228 23.574 12.055 23.528 11.928 23.434 C 11.802 23.341 11.715 23.218 11.668 23.064 C 11.502 23.238 11.338 23.374 11.178 23.474 C 11.018 23.568 10.812 23.614 10.558 23.614 C 10.265 23.614 10.018 23.534 9.818 23.374 C 9.618 23.214 9.518 22.981 9.518 22.674 C 9.518 22.468 9.575 22.288 9.688 22.134 C 9.802 21.988 9.945 21.861 10.118 21.754 C 10.292 21.648 10.478 21.561 10.678 21.494 C 10.878 21.421 11.062 21.361 11.228 21.314 L 11.638 21.194 L 11.638 20.984 C 11.638 20.631 11.585 20.391 11.478 20.264 C 11.378 20.131 11.202 20.064 10.948 20.064 C 10.922 20.064 10.898 20.064 10.878 20.064 C 10.852 20.064 10.825 20.068 10.798 20.074 C 10.692 20.081 10.625 20.144 10.598 20.264 L 10.528 20.594 C 10.462 20.914 10.302 21.074 10.048 21.074 C 9.942 21.074 9.852 21.041 9.778 20.974 C 9.698 20.908 9.655 20.821 9.648 20.714 C 9.695 20.414 9.855 20.171 10.128 19.984 C 10.402 19.798 10.765 19.704 11.218 19.704 C 11.658 19.704 11.978 19.811 12.178 20.024 C 12.385 20.238 12.488 20.614 12.488 21.154 L 12.488 22.764 C 12.488 23.004 12.562 23.124 12.708 23.124 C 12.775 23.124 12.835 23.104 12.888 23.064 C 12.922 23.038 12.945 23.014 12.958 22.994 C 12.972 22.981 12.982 22.968 12.988 22.954 Z M 11.638 22.754 L 11.638 21.514 C 11.512 21.548 11.375 21.588 11.228 21.634 C 11.082 21.681 10.945 21.741 10.818 21.814 C 10.685 21.894 10.578 21.988 10.498 22.094 C 10.412 22.201 10.368 22.334 10.368 22.494 C 10.368 22.674 10.422 22.814 10.528 22.914 C 10.642 23.014 10.788 23.064 10.968 23.064 C 11.075 23.064 11.175 23.044 11.268 23.004 C 11.362 22.958 11.485 22.874 11.638 22.754 L 11.638 22.754 Z M 19.468 22.924 C 19.468 23.038 19.528 23.108 19.648 23.134 L 19.788 23.164 C 19.908 23.184 19.968 23.244 19.968 23.344 C 19.968 23.444 19.902 23.494 19.768 23.494 L 18.308 23.494 C 18.175 23.494 18.108 23.444 18.108 23.344 C 18.108 23.251 18.168 23.191 18.288 23.164 L 18.458 23.134 C 18.572 23.108 18.632 23.038 18.638 22.924 L 18.638 21.174 C 18.638 20.854 18.592 20.628 18.498 20.494 C 18.405 20.361 18.265 20.294 18.078 20.294 C 17.932 20.294 17.778 20.338 17.618 20.424 C 17.465 20.511 17.308 20.624 17.148 20.764 C 17.155 20.811 17.162 20.861 17.168 20.914 C 17.168 20.974 17.168 21.034 17.168 21.094 L 17.168 22.924 C 17.175 23.038 17.235 23.108 17.348 23.134 L 17.498 23.164 C 17.612 23.184 17.668 23.244 17.668 23.344 C 17.668 23.444 17.602 23.494 17.468 23.494 L 16.008 23.494 C 15.875 23.494 15.808 23.444 15.808 23.344 C 15.808 23.251 15.868 23.191 15.988 23.164 L 16.148 23.134 C 16.268 23.108 16.332 23.038 16.338 22.924 L 16.338 21.174 C 16.338 20.854 16.292 20.628 16.198 20.494 C 16.112 20.361 15.975 20.294 15.788 20.294 C 15.628 20.294 15.472 20.334 15.318 20.414 C 15.165 20.501 15.012 20.614 14.858 20.754 L 14.858 22.924 C 14.865 23.038 14.925 23.108 15.038 23.134 L 15.178 23.154 C 15.292 23.181 15.348 23.244 15.348 23.344 C 15.348 23.444 15.282 23.494 15.148 23.494 L 13.678 23.494 C 13.545 23.494 13.478 23.444 13.478 23.344 C 13.478 23.251 13.542 23.191 13.668 23.164 L 13.828 23.134 C 13.948 23.108 14.012 23.038 14.018 22.924 L 14.018 21.474 C 14.018 21.368 14.018 21.271 14.018 21.184 C 14.018 21.098 14.015 21.024 14.008 20.964 C 14.002 20.918 13.998 20.878 13.998 20.844 C 13.998 20.804 13.998 20.764 13.998 20.724 C 13.992 20.598 13.928 20.528 13.808 20.514 L 13.608 20.494 C 13.488 20.474 13.428 20.418 13.428 20.324 C 13.428 20.231 13.482 20.164 13.588 20.124 L 14.508 19.764 C 14.562 19.744 14.612 19.734 14.658 19.734 C 14.692 19.734 14.712 19.738 14.718 19.744 C 14.765 19.771 14.788 19.834 14.788 19.934 L 14.828 20.394 C 15.015 20.168 15.215 19.998 15.428 19.884 C 15.635 19.764 15.862 19.704 16.108 19.704 C 16.375 19.704 16.588 19.761 16.748 19.874 C 16.908 19.988 17.025 20.168 17.098 20.414 C 17.298 20.168 17.505 19.988 17.718 19.874 C 17.925 19.761 18.165 19.704 18.438 19.704 C 18.778 19.704 19.035 19.811 19.208 20.024 C 19.382 20.231 19.468 20.574 19.468 21.054 L 19.468 22.924 Z M 23.978 21.394 C 23.958 21.514 23.885 21.574 23.758 21.574 L 21.438 21.574 C 21.452 22.054 21.568 22.418 21.788 22.664 C 22.015 22.911 22.305 23.034 22.658 23.034 C 22.872 23.034 23.052 22.994 23.198 22.914 C 23.345 22.841 23.478 22.734 23.598 22.594 C 23.658 22.528 23.715 22.494 23.768 22.494 C 23.795 22.494 23.818 22.504 23.838 22.524 C 23.918 22.578 23.928 22.658 23.868 22.764 C 23.728 23.038 23.528 23.244 23.268 23.384 C 23.008 23.531 22.702 23.604 22.348 23.604 C 22.048 23.604 21.785 23.554 21.558 23.454 C 21.325 23.348 21.128 23.208 20.968 23.034 C 20.815 22.854 20.698 22.641 20.618 22.394 C 20.538 22.148 20.498 21.881 20.498 21.594 C 20.498 21.314 20.542 21.051 20.628 20.804 C 20.722 20.551 20.852 20.331 21.018 20.144 C 21.185 19.951 21.388 19.801 21.628 19.694 C 21.862 19.588 22.125 19.534 22.418 19.534 C 22.658 19.534 22.875 19.574 23.068 19.654 C 23.262 19.734 23.428 19.844 23.568 19.984 C 23.708 20.124 23.815 20.294 23.888 20.494 C 23.962 20.688 23.998 20.904 23.998 21.144 C 23.998 21.191 23.998 21.234 23.998 21.274 C 23.998 21.314 23.992 21.354 23.978 21.394 L 23.978 21.394 Z M 21.458 21.204 L 22.658 21.204 C 22.845 21.204 22.972 21.164 23.038 21.084 C 23.105 21.004 23.138 20.891 23.138 20.744 C 23.138 20.504 23.072 20.304 22.938 20.144 C 22.805 19.984 22.635 19.904 22.428 19.904 C 22.262 19.904 22.118 19.948 21.998 20.034 C 21.878 20.114 21.782 20.218 21.708 20.344 C 21.628 20.471 21.568 20.611 21.528 20.764 C 21.488 20.918 21.465 21.064 21.458 21.204 L 21.458 21.204 Z M 26.208 21.214 L 26.458 21.294 C 26.658 21.374 26.825 21.454 26.958 21.534 C 27.085 21.614 27.192 21.701 27.278 21.794 C 27.352 21.888 27.405 21.991 27.438 22.104 C 27.472 22.211 27.488 22.328 27.488 22.454 C 27.488 22.668 27.442 22.848 27.348 22.994 C 27.255 23.141 27.132 23.261 26.978 23.354 C 26.832 23.448 26.665 23.514 26.478 23.554 C 26.298 23.594 26.118 23.614 25.938 23.614 C 25.712 23.614 25.512 23.594 25.338 23.554 C 25.172 23.508 25.002 23.441 24.828 23.354 C 24.735 23.314 24.688 23.238 24.688 23.124 L 24.678 22.614 C 24.678 22.481 24.742 22.414 24.868 22.414 L 24.998 22.414 C 25.118 22.414 25.192 22.478 25.218 22.604 L 25.278 22.934 C 25.292 23.041 25.348 23.111 25.448 23.144 C 25.608 23.211 25.772 23.244 25.938 23.244 C 26.212 23.244 26.412 23.194 26.538 23.094 C 26.658 23.001 26.718 22.868 26.718 22.694 C 26.718 22.541 26.665 22.421 26.558 22.334 C 26.452 22.248 26.262 22.151 25.988 22.044 L 25.638 21.914 C 25.338 21.794 25.108 21.648 24.948 21.474 C 24.788 21.301 24.708 21.081 24.708 20.814 C 24.708 20.614 24.752 20.444 24.838 20.304 C 24.925 20.164 25.038 20.051 25.178 19.964 C 25.312 19.871 25.465 19.804 25.638 19.764 C 25.812 19.724 25.985 19.704 26.158 19.704 C 26.345 19.704 26.515 19.724 26.668 19.764 C 26.822 19.804 26.978 19.861 27.138 19.934 C 27.238 19.988 27.285 20.068 27.278 20.174 L 27.258 20.624 C 27.252 20.751 27.185 20.814 27.058 20.814 L 26.938 20.814 C 26.812 20.814 26.738 20.758 26.718 20.644 L 26.658 20.344 C 26.638 20.231 26.582 20.161 26.488 20.134 C 26.375 20.094 26.258 20.074 26.138 20.074 C 25.925 20.074 25.758 20.121 25.638 20.214 C 25.525 20.301 25.468 20.431 25.468 20.604 C 25.468 20.731 25.518 20.841 25.618 20.934 C 25.672 20.974 25.748 21.018 25.848 21.064 C 25.948 21.111 26.068 21.161 26.208 21.214 L 26.208 21.214 Z" style="text-transform:capitalize;fill:#ffffff" id="path5"/>
  </g>
</svg>