<?xml version="1.0" encoding="UTF-8" standalone="no"?>
<svg
   viewBox="0 0 33.8667 33.8667"
   width="128"
   height="128"
   version="1.1"
   id="svg5"
   xmlns="http://www.w3.org/2000/svg"
   xmlns:svg="http://www.w3.org/2000/svg">
  <defs
     id="defs2">
    <linearGradient
       id="swatch10">
      <stop
         style="stop-color:#000000;stop-opacity:1;"
         offset="0"
         id="stop10" />
    </linearGradient>
    <linearGradient
       id="gradient-1"
       gradientTransform="scale(2.5603819,0.39056673)"
       x1="0"
       y1="0"
       x2="92.173749"
       y2="0"
       gradientUnits="userSpaceOnUse">
      <stop
         offset="0"
         style=""
         id="stop1" />
      <stop
         offset="1"
         style="stop-color: rgb(36, 31, 49);"
         id="stop2" />
    </linearGradient>
  </defs>
  <g
     id="object-0">
    <g
       transform="matrix(0,-0.143503,0.940741,0,1.8e-5,33.866706)"
       id="g3">
      <defs
         id="defs3" />
      <rect
         x="0"
         y="0"
         width="236"
         height="36"
         style="fill:url(#gradient-1)"
         id="rect3" />
      <circle
         cx="49.212509"
         cy="155.575"
         r="15.743801"
         id="circle2892"
         style="display:inline;opacity:1;mix-blend-mode:normal;fill:none;fill-opacity:1;stroke:#fffff0;stroke-width:0.261937;stroke-linecap:butt;stroke-linejoin:miter;stroke-miterlimit:4;stroke-dasharray:none;stroke-dashoffset:0;stroke-opacity:0.260784;marker:none;paint-order:normal"
         transform="matrix(0,1.062992,-6.968496,0,1202.1238,-34.312508)" />
    </g>
    <path
       d="m 2.69,4.32 q 0,0.18 -0.19,0.2 L 2.22,4.55 q -0.18,0.03 -0.19,0.2 0,0.2 -0.01,0.4 0,0.19 0,0.39 v 2.29 q 0,0.2 0,0.39 0.01,0.2 0.01,0.4 0.01,0.2 0.19,0.21 L 2.5,8.86 q 0.19,0.02 0.19,0.19 0,0.18 -0.2,0.18 H 0.64 q -0.2,0 -0.2,-0.18 0,-0.17 0.2,-0.19 L 0.9,8.83 q 0.18,-0.02 0.18,-0.2 0.01,-0.2 0.01,-0.4 0,-0.2 0,-0.4 V 5.36 L -0.64,9.23 H -0.92 L -2.68,5.35 v 3.24 q 0,0.19 0.19,0.21 l 0.31,0.05 Q -2,8.87 -2,9.05 -2,9.23 -2.2,9.23 h -1.4 q -0.2,0 -0.2,-0.18 0,-0.18 0.19,-0.2 L -3.27,8.8 Q -3.08,8.78 -3.08,8.59 V 4.77 q 0,-0.19 -0.19,-0.22 L -3.56,4.52 q -0.19,-0.02 -0.19,-0.2 0,-0.17 0.2,-0.17 h 1.26 L -0.52,8 1.16,4.3 Q 1.24,4.15 1.4,4.15 h 1.09 q 0.2,0 0.2,0.17 z m 1.96,4.33 q 0,0.17 0.18,0.21 l 0.14,0.02 q 0.17,0.04 0.17,0.19 0,0.16 -0.2,0.16 H 3.47 q -0.2,0 -0.2,-0.16 0,-0.14 0.18,-0.18 L 3.61,8.86 Q 3.79,8.82 3.8,8.65 V 7.23 Q 3.8,7.07 3.8,6.95 3.8,6.82 3.79,6.71 3.78,6.64 3.78,6.58 3.78,6.51 3.78,6.45 3.77,6.27 3.59,6.24 L 3.4,6.22 Q 3.21,6.19 3.21,6.05 3.21,5.92 3.37,5.86 L 4.41,5.48 Q 4.45,5.47 4.49,5.46 4.52,5.45 4.55,5.45 q 0.04,0 0.06,0.02 0.06,0.05 0.06,0.2 L 4.65,6.58 Z M 4.21,4.7 Q 3.96,4.7 3.79,4.55 3.63,4.39 3.63,4.15 3.63,3.9 3.79,3.75 3.96,3.59 4.21,3.59 q 0.25,0 0.42,0.16 0.16,0.15 0.16,0.4 0,0.24 -0.16,0.4 Q 4.46,4.7 4.21,4.7 Z m 5.14,3.95 q 0.01,0.17 0.18,0.21 l 0.14,0.02 q 0.18,0.04 0.18,0.19 0,0.16 -0.2,0.16 H 8.17 q -0.2,0 -0.2,-0.16 0,-0.15 0.18,-0.18 L 8.31,8.86 Q 8.49,8.82 8.49,8.65 V 6.91 Q 8.49,6.43 8.38,6.22 8.26,6.02 7.96,6.02 7.71,6.02 7.48,6.14 7.25,6.26 7,6.5 V 8.65 Q 7.01,8.82 7.18,8.86 L 7.33,8.89 Q 7.5,8.92 7.5,9.07 7.5,9.23 7.3,9.23 H 5.81 q -0.2,0 -0.2,-0.16 0,-0.14 0.19,-0.18 L 5.97,8.86 Q 6.14,8.82 6.15,8.65 V 7.2 q 0,-0.16 0,-0.29 Q 6.15,6.79 6.14,6.69 6.13,6.63 6.13,6.57 6.13,6.51 6.13,6.45 6.12,6.27 5.94,6.24 L 5.75,6.22 Q 5.57,6.19 5.57,6.05 5.57,5.91 5.73,5.85 L 6.65,5.49 Q 6.73,5.46 6.8,5.46 q 0.05,0 0.06,0.01 0.07,0.04 0.07,0.19 L 6.97,6.13 Q 7.28,5.78 7.59,5.61 7.9,5.43 8.29,5.43 q 0.53,0 0.8,0.33 0.26,0.32 0.26,1.06 z m 4.54,-0.01 q 0,0.19 0.18,0.22 l 0.12,0.02 q 0.18,0.04 0.18,0.19 0,0.16 -0.19,0.17 L 13.32,9.3 h -0.01 q -0.18,0 -0.2,-0.19 L 13.06,8.65 q -0.6,0.7 -1.33,0.7 -0.23,0 -0.42,-0.08 Q 11.11,9.19 10.98,9.03 10.84,8.87 10.77,8.61 10.7,8.35 10.71,7.96 l 0.01,-1.77 q 0,-0.17 -0.18,-0.21 L 10.43,5.95 q -0.18,-0.03 -0.18,-0.18 0,-0.14 0.19,-0.16 l 0.93,-0.08 q 0.03,0 0.06,0 0.02,-0.01 0.04,-0.01 0.05,0 0.08,0.02 0.04,0.03 0.04,0.18 l -0.04,0.95 v 1.18 q 0,0.5 0.14,0.7 0.14,0.2 0.4,0.2 0.23,0 0.48,-0.13 0.24,-0.13 0.46,-0.35 l 0.03,-2.08 q 0,-0.17 -0.19,-0.21 L 12.76,5.95 q -0.17,-0.03 -0.17,-0.17 0,-0.15 0.19,-0.16 l 0.91,-0.09 q 0.03,0 0.06,0 0.02,-0.01 0.04,-0.01 0.05,0 0.08,0.02 0.02,0.01 0.03,0.05 0.01,0.04 0.01,0.13 l -0.02,0.95 z m 2.58,-1.7 0.26,0.09 q 0.29,0.11 0.49,0.23 0.19,0.13 0.32,0.26 0.11,0.15 0.16,0.31 0.05,0.16 0.05,0.35 0,0.32 -0.14,0.54 -0.14,0.22 -0.36,0.36 -0.23,0.14 -0.5,0.2 -0.28,0.07 -0.55,0.07 -0.34,0 -0.59,-0.07 Q 15.35,9.21 15.09,9.08 14.95,9.02 14.95,8.85 l -0.01,-0.5 q 0,-0.2 0.19,-0.2 h 0.13 q 0.18,0 0.22,0.18 l 0.06,0.34 q 0.03,0.16 0.17,0.2 0.24,0.1 0.5,0.1 0.4,0 0.59,-0.14 0.18,-0.15 0.18,-0.4 0,-0.24 -0.16,-0.37 Q 16.66,7.93 16.25,7.77 L 15.9,7.64 Q 15.45,7.46 15.21,7.2 14.97,6.95 14.97,6.55 q 0,-0.31 0.13,-0.52 0.13,-0.2 0.34,-0.34 0.21,-0.14 0.46,-0.2 0.26,-0.06 0.52,-0.06 0.28,0 0.51,0.06 0.24,0.06 0.47,0.18 0.15,0.07 0.14,0.24 l -0.02,0.44 q -0.01,0.2 -0.2,0.2 H 17.2 q -0.19,0 -0.22,-0.18 L 16.93,6.07 Q 16.89,5.91 16.75,5.87 16.58,5.8 16.4,5.8 q -0.32,0 -0.49,0.14 -0.18,0.13 -0.18,0.39 0,0.19 0.16,0.33 0.08,0.06 0.22,0.13 0.15,0.08 0.36,0.15 z"
       transform="translate(9.848339,6.274179)"
       style="text-transform:capitalize;fill:#ffffff"
       id="path3" />
    <path
       transform="translate(9.848339,6.274179)"
       style="text-transform:capitalize;fill:#ffffff"
       id="path4"
       d="" />
    <path
       d="m -0.02,14.82 q 0.2,0 0.2,0.16 0,0.18 -0.19,0.2 l -0.07,0.01 q -0.18,0.03 -0.18,0.21 -0.01,0.29 -0.02,0.57 0,0.29 0,0.59 v 0.18 q 0,0.16 -0.14,0.23 -0.37,0.18 -0.74,0.28 -0.37,0.09 -0.8,0.09 -0.58,0 -1.06,-0.2 -0.48,-0.2 -0.84,-0.55 -0.35,-0.35 -0.54,-0.84 -0.19,-0.49 -0.19,-1.06 0,-0.59 0.2,-1.08 0.2,-0.49 0.55,-0.84 0.36,-0.35 0.86,-0.55 0.49,-0.2 1.08,-0.2 0.38,0 0.71,0.08 0.33,0.07 0.67,0.23 0.14,0.06 0.14,0.23 l 0.02,0.74 q 0,0.2 -0.19,0.2 h -0.16 q -0.19,0 -0.22,-0.19 l -0.09,-0.54 q -0.02,-0.16 -0.16,-0.22 -0.32,-0.12 -0.67,-0.12 -0.47,0 -0.8,0.2 -0.33,0.2 -0.54,0.52 -0.2,0.32 -0.29,0.73 -0.1,0.4 -0.1,0.81 0,0.42 0.1,0.82 0.1,0.4 0.31,0.72 0.21,0.32 0.55,0.51 0.33,0.2 0.81,0.2 0.23,0 0.45,-0.05 0.16,-0.05 0.16,-0.19 v -0.14 q 0,-0.28 0,-0.57 -0.01,-0.29 -0.02,-0.57 0,-0.18 -0.18,-0.2 l -0.3,-0.04 q -0.2,-0.02 -0.2,-0.2 0,-0.16 0.2,-0.16 z m 4.16,1.86 q 0.02,-0.02 0.11,0.06 0.09,0.1 -0.01,0.24 Q 4.11,17.17 3.96,17.24 3.81,17.3 3.6,17.3 3.27,17.3 3.08,17.16 2.89,17.02 2.82,16.79 2.57,17.05 2.33,17.2 q -0.24,0.14 -0.62,0.14 -0.44,0 -0.74,-0.24 -0.3,-0.24 -0.3,-0.7 0,-0.31 0.17,-0.54 0.17,-0.22 0.43,-0.38 0.26,-0.16 0.56,-0.26 0.3,-0.11 0.55,-0.18 l 0.41,-0.12 v -0.21 q 0,-0.53 -0.16,-0.72 -0.15,-0.2 -0.53,-0.2 -0.04,0 -0.07,0 -0.04,0 -0.08,0.01 -0.16,0.01 -0.2,0.19 L 1.68,14.32 Q 1.58,14.8 1.2,14.8 1.04,14.8 0.93,14.7 0.81,14.6 0.8,14.44 q 0.07,-0.45 0.48,-0.73 0.41,-0.28 1.09,-0.28 0.66,0 0.96,0.32 0.31,0.32 0.31,1.13 v 1.61 q 0,0.36 0.22,0.36 0.1,0 0.18,-0.06 0.05,-0.04 0.07,-0.07 0.02,-0.02 0.03,-0.04 z m -1.35,-0.2 v -1.24 q -0.19,0.05 -0.41,0.12 -0.22,0.07 -0.41,0.18 -0.2,0.12 -0.32,0.28 -0.13,0.16 -0.13,0.4 0,0.27 0.16,0.42 0.17,0.15 0.44,0.15 0.16,0 0.3,-0.06 0.14,-0.07 0.37,-0.25 z m 7.83,0.17 q 0,0.17 0.18,0.21 l 0.14,0.03 q 0.18,0.03 0.18,0.18 0,0.15 -0.2,0.15 H 9.46 q -0.2,0 -0.2,-0.15 0,-0.14 0.18,-0.18 L 9.61,16.86 Q 9.78,16.82 9.79,16.65 V 14.9 q 0,-0.48 -0.14,-0.68 -0.14,-0.2 -0.42,-0.2 -0.22,0 -0.46,0.13 -0.23,0.13 -0.47,0.34 0.01,0.07 0.02,0.15 0,0.09 0,0.18 v 1.83 q 0.01,0.17 0.18,0.21 l 0.15,0.03 q 0.17,0.03 0.17,0.18 0,0.15 -0.2,0.15 H 7.16 q -0.2,0 -0.2,-0.15 0,-0.14 0.18,-0.18 L 7.3,16.86 Q 7.48,16.82 7.49,16.65 V 14.9 q 0,-0.48 -0.14,-0.68 -0.13,-0.2 -0.41,-0.2 -0.24,0 -0.47,0.12 -0.23,0.13 -0.46,0.34 v 2.17 q 0.01,0.17 0.18,0.21 l 0.14,0.02 q 0.17,0.04 0.17,0.19 0,0.15 -0.2,0.15 H 4.83 q -0.2,0 -0.2,-0.15 0,-0.14 0.19,-0.18 L 4.98,16.86 Q 5.16,16.82 5.17,16.65 V 15.2 q 0,-0.16 0,-0.29 0,-0.13 -0.01,-0.22 -0.01,-0.07 -0.01,-0.12 0,-0.06 0,-0.12 -0.01,-0.19 -0.19,-0.21 l -0.2,-0.02 q -0.18,-0.03 -0.18,-0.17 0,-0.14 0.16,-0.2 l 0.92,-0.36 q 0.08,-0.03 0.15,-0.03 0.05,0 0.06,0.01 0.07,0.04 0.07,0.19 l 0.04,0.46 q 0.28,-0.34 0.6,-0.51 0.31,-0.18 0.68,-0.18 0.4,0 0.64,0.17 0.24,0.17 0.35,0.54 0.3,-0.37 0.62,-0.54 0.31,-0.17 0.72,-0.17 0.51,0 0.77,0.32 0.26,0.31 0.26,1.03 z m 4.51,-1.53 Q 15.1,15.3 14.91,15.3 h -2.32 q 0.02,0.72 0.35,1.09 0.34,0.37 0.87,0.37 0.32,0 0.54,-0.12 0.22,-0.11 0.4,-0.32 0.09,-0.1 0.17,-0.1 0.04,0 0.07,0.03 0.12,0.08 0.03,0.24 -0.21,0.41 -0.6,0.62 -0.39,0.22 -0.92,0.22 -0.45,0 -0.79,-0.15 -0.35,-0.16 -0.59,-0.42 -0.23,-0.27 -0.35,-0.64 -0.12,-0.37 -0.12,-0.8 0,-0.42 0.13,-0.79 0.14,-0.38 0.39,-0.66 0.25,-0.29 0.61,-0.45 0.35,-0.16 0.79,-0.16 0.36,0 0.65,0.12 0.29,0.12 0.5,0.33 0.21,0.21 0.32,0.51 0.11,0.29 0.11,0.65 0,0.07 0,0.13 0,0.06 -0.02,0.12 z m -2.52,-0.19 h 1.2 q 0.28,0 0.38,-0.12 0.1,-0.12 0.1,-0.34 0,-0.36 -0.2,-0.6 -0.2,-0.24 -0.51,-0.24 -0.25,0 -0.43,0.13 -0.18,0.12 -0.29,0.31 -0.12,0.19 -0.18,0.42 -0.06,0.23 -0.07,0.44 z m 4.75,0.01 0.25,0.08 q 0.3,0.12 0.5,0.24 0.19,0.12 0.32,0.26 0.11,0.14 0.16,0.31 0.05,0.16 0.05,0.35 0,0.32 -0.14,0.54 -0.14,0.22 -0.37,0.36 -0.22,0.14 -0.5,0.2 -0.27,0.06 -0.54,0.06 -0.34,0 -0.6,-0.06 -0.25,-0.07 -0.51,-0.2 -0.14,-0.06 -0.14,-0.23 l -0.01,-0.51 q 0,-0.2 0.19,-0.2 h 0.13 q 0.18,0 0.22,0.19 l 0.06,0.33 q 0.02,0.16 0.17,0.21 0.24,0.1 0.49,0.1 0.41,0 0.6,-0.15 0.18,-0.14 0.18,-0.4 0,-0.23 -0.16,-0.36 -0.16,-0.13 -0.57,-0.29 l -0.35,-0.13 q -0.45,-0.18 -0.69,-0.44 -0.24,-0.26 -0.24,-0.66 0,-0.3 0.13,-0.51 0.13,-0.21 0.34,-0.34 0.2,-0.14 0.46,-0.2 0.26,-0.06 0.52,-0.06 0.28,0 0.51,0.06 0.23,0.06 0.47,0.17 0.15,0.08 0.14,0.24 l -0.02,0.45 q -0.01,0.19 -0.2,0.19 h -0.12 q -0.19,0 -0.22,-0.17 l -0.06,-0.3 Q 17.78,13.9 17.64,13.86 17.47,13.8 17.29,13.8 q -0.32,0 -0.5,0.14 -0.17,0.13 -0.17,0.39 0,0.19 0.15,0.33 0.08,0.06 0.23,0.13 0.15,0.07 0.36,0.15 z"
       transform="translate(9.848339,6.274179)"
       style="text-transform:capitalize;fill:#ffffff"
       id="path5" />
  </g>
</svg>
